User Type,Username,Date,Text
[T],[qusawa],2012-12-23T12:01Z,"                               Taken.2.2012.WEB-DL-RiP.XviD.AC-3.avi


Format                                   : AVI
Format/Info                              : Audio Video Interleave
File size                                : 697 MiB
Duration                                 : 1h 32mn
Overall bit rate                         : 1 052 Kbps

Video
ID                                       : 0
Format                                   : MPEG-4 Visual
Format profile                           : Advanced Simple@L5
Format settings, BVOP                    : 4
Format settings, QPel                    : Yes
Format settings, GMC                     : No warppoints
Format settings, Matrix                  : Default (H.263)
Codec ID                                 : XVID
Codec ID/Hint                            : XviD
Duration                                 : 1h 32mn
Bit rate                                 : 886 Kbps
Width                                    : 704 pixels
Height                                   : 288 pixels
Display aspect ratio                     : 2.40:1
Frame rate                               : 23.976 fps
Color space                              : YUV
Chroma subsampling                       : 4:2:0
Bit depth                                : 8 bits
Scan type                                : Progressive
Compression mode                         : Lossy
Bits/(Pixel*Frame)                       : 0.182
Stream size                              : 587 MiB (84%)
Writing library                          : XviD 1.2.1 (UTC 2008-12-04)

Audio
ID                                       : 1
Format                                   : AC-3
Format/Info                              : Audio Coding 3
Mode extension                           : CM (complete main)
Format settings, Endianness              : Big
Codec ID                                 : 2000
Duration                                 : 1h 32mn
Bit rate mode                            : Constant
Bit rate                                 : 160 Kbps
Channel(s)                               : 6 channels
Channel positions                        : Front: L C R, Side: L R, LFE
Sampling rate                            : 48.0 KHz
Bit depth                                : 16 bits
Compression mode                         : Lossy
Stream size                              : 105 MiB (15%)
Alignment                                : Aligned on interleaves
Interleave, duration                     : 64 ms (1.54 video frames)
Interleave, preload duration             : 192 ms"
[T],[qusawa],2012-12-23T12:01Z,"Taken.2.2012.Extra.Alternate.Ending.WEB-DL-RiP.XviD.AC-3.avi



Format                                   : AVI
Format/Info                              : Audio Video Interleave
File size                                : 177 MiB
Duration                                 : 24mn 39s
Overall bit rate                         : 1 006 Kbps

Video
ID                                       : 0
Format                                   : MPEG-4 Visual
Format profile                           : Advanced Simple@L5
Format settings, BVOP                    : 4
Format settings, QPel                    : Yes
Format settings, GMC                     : No warppoints
Format settings, Matrix                  : Default (H.263)
Codec ID                                 : XVID
Codec ID/Hint                            : XviD
Duration                                 : 24mn 39s
Bit rate                                 : 838 Kbps
Width                                    : 512 pixels
Height                                   : 288 pixels
Display aspect ratio                     : 16:9
Frame rate                               : 23.976 fps
Color space                              : YUV
Chroma subsampling                       : 4:2:0
Bit depth                                : 8 bits
Scan type                                : Progressive
Compression mode                         : Lossy
Bits/(Pixel*Frame)                       : 0.237
Stream size                              : 148 MiB (83%)
Writing library                          : XviD 1.2.1 (UTC 2008-12-04)

Audio
ID                                       : 1
Format                                   : AC-3
Format/Info                              : Audio Coding 3
Mode extension                           : CM (complete main)
Format settings, Endianness              : Big
Codec ID                                 : 2000
Duration                                 : 24mn 39s
Bit rate mode                            : Constant
Bit rate                                 : 160 Kbps
Channel(s)                               : 6 channels
Channel positions                        : Front: L C R, Side: L R, LFE
Sampling rate                            : 48.0 KHz
Bit depth                                : 16 bits
Compression mode                         : Lossy
Stream size                              : 28.2 MiB (16%)
Alignment                                : Aligned on interleaves
Interleave, duration                     : 64 ms (1.53 video frames)
Interleave, preload duration             : 192 ms

"
[T],[qusawa],2012-12-23T12:03Z,"Taken.2.2012.WEB-DL-RiP.XviD.AC-3.avi

and this: 

Taken.2.2012.Extra.Alternate.Ending.WEB-DL-RiP.XviD.AC-3.avi"
,far_kit,2012-12-23T23:00Z,"V 8.5
A 4
Good quality but have to crank the volume up to hear it, and no I'm not deaf."
[T],[qusawa],2012-12-25T12:37Z,far_kit......do you get money for lying?
